<svg xmlns="http://www.w3.org/2000/svg" xmlns:xlink="http://www.w3.org/1999/xlink" width="44" height="44" viewBox="0 0 44 44"><defs><linearGradient id="a" x1="0.5" y1="1" x2="0.5" gradientUnits="objectBoundingBox"><stop offset="0" stop-color="#ffa915"/><stop offset="0.473" stop-color="#df2874"/><stop offset="1" stop-color="#b039db"/></linearGradient></defs><circle cx="22" cy="22" r="22" fill="url(#a)"/><g transform="translate(-148 -668.103)"><g transform="translate(154.922 675.904)"><path d="M14.579,5.971c2.8,0,3.136.011,4.243.061a5.812,5.812,0,0,1,1.95.362,3.477,3.477,0,0,1,1.993,1.993,5.811,5.811,0,0,1,.362,1.95c.051,1.107.061,1.439.061,4.243s-.011,3.136-.061,4.243a5.812,5.812,0,0,1-.362,1.95,3.477,3.477,0,0,1-1.993,1.993,5.812,5.812,0,0,1-1.95.362c-1.107.051-1.439.061-4.243.061s-3.136-.011-4.243-.061a5.811,5.811,0,0,1-1.95-.362,3.477,3.477,0,0,1-1.993-1.993,5.812,5.812,0,0,1-.362-1.95c-.051-1.107-.061-1.439-.061-4.243s.011-3.136.061-4.243a5.812,5.812,0,0,1,.362-1.95A3.477,3.477,0,0,1,8.386,6.394a5.811,5.811,0,0,1,1.95-.362c1.107-.051,1.439-.061,4.243-.061m0-1.892c-2.852,0-3.209.012-4.329.063A7.707,7.707,0,0,0,7.7,4.63,5.369,5.369,0,0,0,4.63,7.7a7.707,7.707,0,0,0-.488,2.549c-.051,1.12-.063,1.477-.063,4.329s.012,3.209.063,4.329a7.707,7.707,0,0,0,.488,2.549A5.369,5.369,0,0,0,7.7,24.528a7.707,7.707,0,0,0,2.549.488c1.12.051,1.477.063,4.329.063s3.209-.012,4.329-.063a7.707,7.707,0,0,0,2.549-.488,5.369,5.369,0,0,0,3.071-3.071,7.707,7.707,0,0,0,.488-2.549c.051-1.12.063-1.477.063-4.329s-.012-3.209-.063-4.329A7.707,7.707,0,0,0,24.528,7.7,5.369,5.369,0,0,0,21.457,4.63a7.707,7.707,0,0,0-2.549-.488c-1.12-.051-1.477-.063-4.329-.063Z" transform="translate(0 0)" fill="#fff"/><path d="M132.027,126.635a5.392,5.392,0,1,0,5.392,5.392A5.392,5.392,0,0,0,132.027,126.635Zm0,8.892a3.5,3.5,0,1,1,3.5-3.5A3.5,3.5,0,0,1,132.027,135.527Z" transform="translate(-117.448 -117.448)" fill="#fff"/><circle cx="1.26" cy="1.26" r="1.26" transform="translate(18.924 7.714)" fill="#fff"/></g></g></svg>