<svg xmlns="http://www.w3.org/2000/svg" width="84" height="84" viewBox="0 0 84 84"><g transform="translate(-1305.495 884.495) rotate(-90)"><circle cx="42" cy="42" r="42" transform="translate(800.495 1305.495)" fill="#fff" opacity="0.616"/><path d="M11.9,0V4.759H0v2.38H11.9V11.9l7.139-6.021Z" transform="translate(842.56 1341.545)" fill="#777"/><path d="M-23.328-8.4h-3.456V0h1.56V-2.424h1.9c2.208,0,3.576-1.14,3.576-2.988S-21.12-8.4-23.328-8.4ZM-23.4-3.744h-1.824V-7.08H-23.4c1.368,0,2.076.612,2.076,1.668S-22.032-3.744-23.4-3.744Zm7.452-2.736a4.506,4.506,0,0,0-2.712.792l.588,1.092a3.172,3.172,0,0,1,1.944-.636c1.068,0,1.6.516,1.6,1.392v.1h-1.656c-1.944,0-2.664.84-2.664,1.908,0,1.116.924,1.92,2.388,1.92A2.271,2.271,0,0,0-14.448-.78V0h1.416V-3.756C-13.032-5.6-14.1-6.48-15.948-6.48Zm-.2,5.472c-.768,0-1.224-.348-1.224-.888,0-.468.276-.852,1.3-.852h1.548V-2A1.633,1.633,0,0,1-16.152-1.008Zm10.032-5.4v.852A2.774,2.774,0,0,0-8.34-6.48,3.042,3.042,0,0,0-11.58-3.4,3.061,3.061,0,0,0-8.34-.288,2.821,2.821,0,0,0-6.192-1.14V-.8c0,1.3-.624,1.944-2.04,1.944A3.871,3.871,0,0,1-10.6.372L-11.268,1.5a5.093,5.093,0,0,0,3.12.912c2.244,0,3.456-1.056,3.456-3.384V-6.408ZM-8.112-1.56A1.817,1.817,0,0,1-10.068-3.4,1.805,1.805,0,0,1-8.112-5.208,1.8,1.8,0,0,1-6.168-3.4,1.813,1.813,0,0,1-8.112-1.56ZM3.3-3.168A3.125,3.125,0,0,0,.06-6.48,3.187,3.187,0,0,0-3.252-3.2,3.254,3.254,0,0,0,.288.084,3.248,3.248,0,0,0,2.868-.96l-.8-.924a2.3,2.3,0,0,1-1.74.7A1.939,1.939,0,0,1-1.752-2.724H3.276C3.288-2.868,3.3-3.048,3.3-3.168ZM.06-5.28A1.744,1.744,0,0,1,1.872-3.72H-1.764A1.771,1.771,0,0,1,.06-5.28ZM11.484-1.416a1.349,1.349,0,0,1-.84.264c-.576,0-.888-.336-.888-.96V-5.16h1.716v-1.2H9.756V-7.824h-1.5V-6.36H7.2v1.2H8.256v3.084A1.969,1.969,0,0,0,10.464.084,2.357,2.357,0,0,0,11.9-.348ZM15.8.084A3.232,3.232,0,0,0,19.224-3.2,3.222,3.222,0,0,0,15.8-6.48,3.226,3.226,0,0,0,12.4-3.2,3.235,3.235,0,0,0,15.8.084Zm0-1.284a1.864,1.864,0,0,1-1.9-2,1.864,1.864,0,0,1,1.9-2,1.866,1.866,0,0,1,1.908,2A1.866,1.866,0,0,1,15.8-1.2Zm8.412-5.28a2.642,2.642,0,0,0-2.124.912v-.84H20.664V2.328h1.5V-.78a2.633,2.633,0,0,0,2.052.864A3.121,3.121,0,0,0,27.468-3.2,3.118,3.118,0,0,0,24.216-6.48ZM24.048-1.2a1.873,1.873,0,0,1-1.908-2,1.873,1.873,0,0,1,1.908-2,1.864,1.864,0,0,1,1.9,2A1.864,1.864,0,0,1,24.048-1.2Z" transform="translate(829.495 1347.496) rotate(90)" fill="#777"/></g></svg>