<svg xmlns="http://www.w3.org/2000/svg" width="26.307" height="30.687" viewBox="0 0 26.307 30.687"><path d="M469.385,301.167a.786.786,0,0,0,.309-.468.409.409,0,0,0-.057-.325l0,0-3.357-4.145-.032-.033a.406.406,0,0,0-.3-.145.787.787,0,0,0-.536.168l-1.726,1.3-.106.079-.075.033a2.062,2.062,0,0,1-.427.254l0,0a1.792,1.792,0,0,1-1.561-.06v0a1.7,1.7,0,0,1-.561-.474L453.2,287.034a2.55,2.55,0,0,1-.309-.731h0a1.674,1.674,0,0,1-.041-.345h0a1.334,1.334,0,0,1,.209-.78c.027-.051.055-.1.087-.15a1.856,1.856,0,0,1,.445-.488l1.975-1.486a.741.741,0,0,0,.179-.2.764.764,0,0,0,.106-.252.485.485,0,0,0,0-.193.331.331,0,0,0-.058-.124l-.024-.04-3.054-4.373,0,0a.406.406,0,0,0-.3-.145.788.788,0,0,0-.536.168l-1.977,1.488a3.325,3.325,0,0,0-1.2,2.034,9.4,9.4,0,0,0,.139,3.808,20.487,20.487,0,0,0,1.651,4.55,34.967,34.967,0,0,0,7.1,9.431,20.456,20.456,0,0,0,3.916,2.845,9.962,9.962,0,0,0,3.038,1.116,4.182,4.182,0,0,0,2.182-.139,11.6,11.6,0,0,0,2.172-1.476c.282-.222.452-.358.491-.387Zm2.845.027a3.373,3.373,0,0,1-1.289,2.041c-.306.23-.38.288-.457.348a13.085,13.085,0,0,1-2.832,1.86,6.728,6.728,0,0,1-3.535.274,12.525,12.525,0,0,1-3.844-1.4,23.005,23.005,0,0,1-4.421-3.2,37.142,37.142,0,0,1-7.681-10.206,23,23,0,0,1-1.849-5.134,11.952,11.952,0,0,1-.144-4.905,5.828,5.828,0,0,1,2.162-3.558l1.978-1.488a3.374,3.374,0,0,1,2.318-.674,2.971,2.971,0,0,1,2.138,1.162l.023.039,3.054,4.374,0,0a2.885,2.885,0,0,1,.51,1.112,3.094,3.094,0,0,1,.018,1.22,3.372,3.372,0,0,1-.441,1.15,3.334,3.334,0,0,1-.821.913l-1.352,1.018,6.776,9,1.323-1a3.377,3.377,0,0,1,2.318-.675,2.974,2.974,0,0,1,2.138,1.162l0,0,3.357,4.145.031.033a2.967,2.967,0,0,1,.525,2.376Z" transform="translate(-445.982 -275.144)" fill="#fff"/></svg>