<svg xmlns="http://www.w3.org/2000/svg" width="44" height="44" viewBox="0 0 44 44"><g transform="translate(-148 -668.103)"><circle cx="22" cy="22" r="22" transform="translate(148 668.103)" fill="red"/><path d="M1158.918,122.049a2.693,2.693,0,0,0-1.9-1.909c-1.674-.452-8.385-.452-8.385-.452s-6.71,0-8.385.452a2.7,2.7,0,0,0-1.9,1.909,30.371,30.371,0,0,0,0,10.4,2.7,2.7,0,0,0,1.9,1.909c1.674.452,8.385.452,8.385.452s6.711,0,8.385-.452a2.693,2.693,0,0,0,1.9-1.909,30.322,30.322,0,0,0,0-10.4Zm-12.476,8.39v-6.382l5.609,3.191Z" transform="translate(-978.636 563.236)" fill="#fff"/></g></svg>